<?xml version="1.0" encoding="UTF-8" standalone="no"?>
<!-- Generator: Moho 12.5 build 22438 -->

<svg
   xmlns:dc="http://purl.org/dc/elements/1.1/"
   xmlns:cc="http://creativecommons.org/ns#"
   xmlns:rdf="http://www.w3.org/1999/02/22-rdf-syntax-ns#"
   xmlns:svg="http://www.w3.org/2000/svg"
   xmlns="http://www.w3.org/2000/svg"
   xmlns:sodipodi="http://sodipodi.sourceforge.net/DTD/sodipodi-0.dtd"
   xmlns:inkscape="http://www.inkscape.org/namespaces/inkscape"
   version="1.1"
   id="Frame_0"
   width="124.22919"
   height="137.82118"
   sodipodi:docname="logo.svg"
   inkscape:version="0.92.3 (2405546, 2018-03-11)"
   inkscape:export-filename="/home/fabienfrfr/Bureau/logo.png"
   inkscape:export-xdpi="240"
   inkscape:export-ydpi="240">
  <metadata
     id="metadata190">
    <rdf:RDF>
      <cc:Work
         rdf:about="">
        <dc:format>image/svg+xml</dc:format>
        <dc:type
           rdf:resource="http://purl.org/dc/dcmitype/StillImage" />
        <dc:title></dc:title>
      </cc:Work>
    </rdf:RDF>
  </metadata>
  <defs
     id="defs188" />
  <sodipodi:namedview
     pagecolor="#ffffff"
     bordercolor="#666666"
     borderopacity="1"
     objecttolerance="10"
     gridtolerance="10"
     guidetolerance="10"
     inkscape:pageopacity="0"
     inkscape:pageshadow="2"
     inkscape:window-width="1920"
     inkscape:window-height="1052"
     id="namedview186"
     showgrid="false"
     fit-margin-top="0"
     fit-margin-left="0"
     fit-margin-right="0"
     fit-margin-bottom="0"
     inkscape:zoom="1.3111111"
     inkscape:cx="-199.27391"
     inkscape:cy="46.05769"
     inkscape:window-x="0"
     inkscape:window-y="0"
     inkscape:window-maximized="1"
     inkscape:current-layer="Frame_0" />
  <g
     id="Layer_6"
     transform="translate(-1073.6907,-223.94897)" />
  <g
     id="g1120"
     transform="translate(-1073.6907,-223.94897)">
    <path
       inkscape:connector-curvature="0"
       id="path2"
       d="m 1101.6086,306.6139 c -1.8673,13.41846 -4.1646,29.17237 -6.3808,44.79297 a 74.555084,74.555084 0 0 0 35.6953,10.36328 c -0.4432,-2.84633 -0.8472,-5.62892 -1.1387,-8.12696 -0.516,-4.424 -0.878,-10.35854 -1,-14.81054 -0.088,-3.206 0.076,-7.48246 0.1094,-10.68946 -8.186,-6.459 -27.2822,-21.52729 -27.2852,-21.52929 z"
       style="fill:#e7e1cb;fill-rule:evenodd;stroke:none" />
    <path
       style="fill:#5f524a;fill-rule:evenodd;stroke:#5f524a;stroke-width:1;stroke-linecap:round;stroke-linejoin:round"
       inkscape:connector-curvature="0"
       id="path6"
       d="m 1119.0633,278.84099 c -3.627,2.115 -9.702,1.353 -13.859,1.933 0,0 0,0 0,0 1.324,-2.904 2.857,-6.895 4.414,-9.682 3.531,-6.32 8.686,-14.651 13.725,-19.85 3.528,-3.641 9.309,-7.31 13.478,-10.194 3.118,-2.156 7.267,-5.099 10.67,-6.766 2.024,-0.992 4.854,-2.07 7.038,-2.622 1.203,-0.304 2.849,-0.679 4.089,-0.62 0.974,0.047 2.276,0.348 3.16,0.76 0.732,0.34 1.909,0.818 2.178,1.579 0.331,0.936 -0.473,2.301 -0.956,3.169 -0.781,1.403 -2.491,2.802 -3.627,3.937 -1.687,1.684 -4.074,3.787 -5.868,5.357 -2.52,2.205 -6.045,4.953 -8.562,7.162 -3.948,3.463 -9.078,8.234 -12.854,11.883 -2.533,2.447 -5.9,5.727 -8.274,8.328 -1.49,1.631 -2.843,4.514 -4.752,5.626 z" />
    <path
       style="fill:#6d6057;fill-rule:evenodd;stroke:#6d6057;stroke-width:1;stroke-linecap:round;stroke-linejoin:round"
       inkscape:connector-curvature="0"
       id="path8"
       d="m 1113.1513,276.80599 c -3.366,2.755 -9.595,3.31 -13.707,4.729 0,0 0,0 0,0 1.011,-3.372 2.068,-7.97 3.371,-11.241 2.68,-6.726 7.12,-15.388 11.144,-21.406 2.88,-4.307 7.24,-9.754 11.018,-13.301 2.897,-2.72 7.206,-5.9 10.663,-7.859 1.813,-1.028 4.355,-2.244 6.371,-2.771 1.295,-0.338 3.093,-0.51 4.431,-0.508 0.975,0.002 2.302,0.062 3.231,0.36 0.768,0.246 1.995,0.574 2.357,1.296 0.445,0.887 -0.183,2.342 -0.554,3.263 -0.6,1.489 -2.07,3.133 -3.108,4.358 -1.495,1.764 -3.852,3.778 -5.488,5.412 -2.426,2.426 -5.739,5.588 -8.029,8.142 -3.48,3.881 -7.808,9.335 -10.919,13.517 -2.138,2.873 -4.777,6.856 -6.767,9.834 -1.227,1.837 -2.304,4.776 -4.014,6.175 z" />
    <path
       inkscape:connector-curvature="0"
       id="path164"
       d="m 1102.4582,278.79554 c -2.124,1.302 -5.133,2.78584 -7.08,4.33984 -2.298,1.833 -4.9814,4.74211 -6.8184,7.03711 -1.546,1.934 -3.3689,4.71062 -4.5449,6.89062 -1.749,3.243 -3.5455,7.84336 -4.7715,11.31836 -1.34,3.797 -2.8075,8.9763 -3.6895,12.9043 -0.7195,3.20193 -1.3683,7.29489 -1.8632,10.87305 a 74.555084,74.555084 0 0 0 40.121,27.07617 c -0.4234,-1.63782 -0.8462,-3.21683 -1.2539,-4.6582 -1.035,-3.661 -2.5308,-8.51489 -3.8398,-12.08789 -0.708,-1.933 -2.0455,-4.36766 -2.6055,-6.34766 -0.836,-2.953 -1.3896,-7.04537 -1.5566,-10.10937 -0.196,-3.60401 0.2304,-8.42358 0.5664,-12.01758 0.208,-2.218 0.7029,-5.15138 1.0039,-7.35938 -1.1,-8.358 -2.568,-19.50137 -3.668,-27.85937 z"
       style="fill:#bb5e21;fill-rule:evenodd;stroke:none" />
    <path
       style="fill:#ac9783;fill-rule:evenodd;stroke:#9b8d73;stroke-width:0;stroke-linecap:round;stroke-linejoin:round"
       inkscape:connector-curvature="0"
       id="path168"
       d="m 1106.4193,276.87799 c 1.847,-0.706 4.406,-1.414 6.353,-1.758 1.84,-0.325 4.343,-0.409 6.209,-0.503 2.291,-0.115 5.357,-0.305 7.645,-0.143 4.109,0.289 9.535,1.335 13.534,2.328 2.338,0.581 5.396,1.594 7.65,2.446 5.831,2.203 13.503,5.493 18.944,8.535 3.236,1.81 7.311,4.638 10.283,6.856 4.409,3.291 10.042,8.021 14.044,11.798 1.525,1.439 3.768,3.238 4.846,5.036 0.29,0.484 0.562,1.204 0.666,1.758 0.131,0.701 0.082,1.668 0,2.376 -0.394,3.363 -1.727,7.742 -2.991,10.883 -0.323,0.803 -0.739,1.921 -1.312,2.569 -1.28,1.445 -3.682,2.669 -5.48,3.368 -2.079,0.808 -5.084,1.196 -7.307,1.37 -2.631,0.207 -6.188,0.145 -8.791,-0.285 -1.407,-0.232 -3.166,-1.051 -4.567,-1.313 -2.583,-0.484 -6.106,-0.638 -8.733,-0.685 -2.777,-0.05 -6.472,0.313 -9.248,0.399 -2.496,0.078 -5.827,0.273 -8.321,0.159 -4.114,-0.187 -9.67,-0.479 -13.632,-1.6 -4.21,-1.19 -9.717,-3.538 -13.217,-6.163 -2.84,-2.131 -5.855,-5.915 -7.882,-8.831 -1.459,-2.099 -3.061,-5.141 -4.041,-7.502 -1.18,-2.844 -2.431,-6.797 -2.924,-9.836 -0.469,-2.895 -0.387,-6.837 -0.332,-9.769 0.026,-1.363 0.047,-3.194 0.292,-4.535 0.159,-0.871 0.365,-2.08 0.835,-2.83 0.132,-0.21 0.389,-0.428 0.578,-0.588 0.139,-0.118 0.346,-0.246 0.494,-0.351 0,0 0,0 0,0 0,0.001 4.4,-2.422 6.405,-3.189 z" />
    <path
       style="fill:#4b4642;fill-rule:evenodd;stroke:none"
       inkscape:connector-curvature="0"
       id="path170"
       d="m 1177.1993,312.63099 c -0.308,-0.339 -0.598,-0.887 -0.854,-1.266 0,0 4.122,0.05 5.888,0.095 1.947,0.048 4.541,0.192 6.489,0.221 2.298,0.036 5.362,-0.022 7.661,-0.031 0,0 0.827,0.388 1.044,0.696 0.462,0.657 0.448,1.832 0.484,2.635 0.053,1.234 -0.145,2.894 -0.438,4.094 -0.537,2.204 -1.729,5.033 -2.862,6.997 -0.392,0.68 -1.086,1.475 -1.551,2.107 0,0 -0.1,-0.885 -0.397,-1.033 -0.348,-0.173 -0.886,0.223 -1.233,0.397 -0.692,0.349 -1.385,1.182 -2.067,1.551 -1.647,0.891 -4.106,1.514 -5.922,1.972 -1.872,0.471 -4.415,0.964 -6.341,1.098 -1.584,0.111 -3.718,0.059 -5.292,-0.15 -0.991,-0.131 -2.405,-0.208 -3.245,-0.749 -0.349,-0.224 -0.629,-0.734 -0.899,-1.048 0,0 1.907,0.517 2.746,0.599 2.956,0.287 6.951,-0.045 9.886,-0.499 1.357,-0.21 3.163,-0.603 4.443,-1.099 1.513,-0.586 3.551,-1.496 4.743,-2.596 0.553,-0.51 1.173,-1.347 1.448,-2.047 0.678,-1.721 0.502,-4.292 0.549,-6.141 0.015,-0.569 -0.035,-1.328 -0.05,-1.897 0,0 -0.777,0.081 -1.11,0.116 -1.153,-0.058 -2.703,-0.019 -3.845,-0.192 -2.052,-0.312 -4.836,-0.85 -6.679,-1.804 -0.877,-0.454 -1.93,-1.296 -2.596,-2.026 m 13.12,4.022 c 0,0 0,0 0,0 z" />
    <path
       style="fill:none;stroke:#4b4642;stroke-width:0;stroke-linecap:round;stroke-linejoin:round"
       inkscape:connector-curvature="0"
       id="path172"
       d="m 1176.3453,311.36499 c 0,0 0,0 0,0 0.256,0.379 0.546,0.927 0.854,1.266 0.666,0.73 1.719,1.572 2.596,2.026 1.843,0.954 4.627,1.492 6.679,1.804 1.142,0.173 2.692,0.134 3.845,0.192 0,0 0,0 0,0 0.333,-0.035 1.11,-0.116 1.11,-0.116 0,0 0,0 0,0 0.015,0.569 0.065,1.328 0.05,1.897 -0.047,1.849 0.129,4.42 -0.549,6.141 -0.275,0.7 -0.895,1.537 -1.448,2.047 -1.192,1.1 -3.23,2.01 -4.743,2.596 -1.28,0.496 -3.086,0.889 -4.443,1.099 -2.935,0.454 -6.93,0.786 -9.886,0.499 -0.839,-0.082 -2.746,-0.599 -2.746,-0.599 0,0 0,0 0,0 0.27,0.314 0.55,0.824 0.899,1.048 0.84,0.541 2.254,0.618 3.245,0.749 1.574,0.209 3.708,0.261 5.292,0.15 1.926,-0.134 4.469,-0.627 6.341,-1.098 1.816,-0.458 4.275,-1.081 5.922,-1.972 0.682,-0.369 1.375,-1.202 2.067,-1.551 0.347,-0.174 0.885,-0.57 1.233,-0.397 0.297,0.148 0.397,1.033 0.397,1.033 0,0 0,0 0,0 0.465,-0.632 1.159,-1.427 1.551,-2.107 1.133,-1.964 2.325,-4.793 2.862,-6.997 0.293,-1.2 0.491,-2.86 0.438,-4.094 -0.036,-0.803 -0.022,-1.978 -0.484,-2.635 -0.217,-0.308 -1.044,-0.696 -1.044,-0.696 0,0 0,0 0,0 -2.299,0.009 -5.363,0.067 -7.661,0.031 -1.948,-0.029 -4.542,-0.173 -6.489,-0.221 -1.766,-0.045 -5.888,-0.095 -5.888,-0.095" />
    <path
       style="fill:#333132;fill-rule:evenodd;stroke:#2c2924;stroke-width:0;stroke-linecap:round;stroke-linejoin:round"
       inkscape:connector-curvature="0"
       id="path174"
       d="m 1144.8303,303.33199 c 0,0 0,0 0,0 -0.124,0.186 -0.258,0.459 -0.413,0.619 -0.655,0.678 -1.775,1.33 -2.644,1.694 -1.124,0.471 -2.751,0.789 -3.967,0.868 -1.379,0.09 -3.263,-0.015 -4.586,-0.413 -1.115,-0.335 -2.506,-1.11 -3.43,-1.818 -0.953,-0.731 -2.053,-1.939 -2.727,-2.934 -0.684,-1.01 -1.444,-2.493 -1.735,-3.677 -0.258,-1.049 -0.116,-2.517 -0.166,-3.595 0,0 0,0 0,0 0.571,-0.074 1.327,-0.216 1.901,-0.248 1.808,-0.102 4.263,-0.177 6.033,0.207 1.12,0.242 2.544,0.861 3.553,1.405 1.626,0.876 3.687,2.294 5,3.594 1.139,1.129 3.181,4.297 3.181,4.298 0,0 0,0 0,0 z" />
    <path
       style="fill:#e5e3e4;fill-rule:evenodd;stroke:#e5e3e4;stroke-width:1;stroke-linecap:round;stroke-linejoin:round"
       inkscape:connector-curvature="0"
       id="path176"
       d="m 1129.0053,294.77799 c 1.134,0 2.107,0.96 2.107,2.232 0,1.271 -0.973,2.231 -2.107,2.231 -1.134,0 -2.107,-0.96 -2.107,-2.231 0,-1.272 0.973,-2.232 2.107,-2.232 z" />
    <path
       style="fill:#3e3633"
       inkscape:connector-curvature="0"
       id="path178"
       d="m 1111.4963,297.68799 c 10.321,-6.161 25.692,-8.837 33.533,3.53 l -2.564,1.557 c -6.446,-11.161 -19.633,-8.424 -29.425,-2.515 z" />
    <path
       style="fill:#3e3633"
       inkscape:connector-curvature="0"
       id="path180"
       d="m 1145.0293,301.21799 c 1.148,1.89 1.78,5.111 1.796,7.526 h -0.6 c 0.015,-2.225 -2.59,-4.042 -3.76,-5.969 z" />
    <path
       style="fill:none;stroke:#3e3633;stroke-width:1;stroke-linecap:butt;stroke-linejoin:round"
       inkscape:connector-curvature="0"
       id="path182"
       d="m 1145.0293,301.21799 -2.564,1.557" />
  </g>
</svg>
